<svg id="svg" fill="#000000" stroke="#000000" width="48" height="48" version="1.1" viewBox="143 143 514 514" xmlns="http://www.w3.org/2000/svg" stroke-width="0">
    <g id="IconSvg_bgCarrier" stroke-width="0"></g>
    <g id="IconSvg_tracerCarrier" stroke-linecap="round" stroke-linejoin="round" stroke="#CCCCCC" stroke-width="0">
      <g xmlns="http://www.w3.org/2000/svg">
  <path d="m217.07 451.09 1.6133-2.0156h-0.003907c2.0039-3.7383 4.707-7.0547 7.9609-9.7734l40.305-49.523 68.168-88.219c-2.9727 1.5117-5.0391 2.8203-6.0977 3.4258-11.637 7.1523-71.188 39.598-80.156 44.637l-70.281 99c4.082 4.2812 12.695 11.84 22.016 11.84 6.6875-0.26562 12.832-3.7578 16.477-9.3711z"></path>
  <path d="m282.11 386.6-7.3555 9.4727-27.355 35.266h47.055l41.969-54.008 3.2734-4.2812 61.215-78.848 3.0742-3.9805 27.961-36.324c2.9258-3.6914 4.3477-8.3516 3.9805-13.047-0.36719-4.6953-2.5-9.0781-5.9688-12.266s-8.0156-4.9453-12.723-4.918c-0.80859-0.050781-1.6133-0.050781-2.4219 0-4.9102 0.62891-9.3672 3.1836-12.391 7.1055l-39.551 51.438-4.4844 5.7422-5.0391 6.3984-65.496 84.891z"></path>
  <path d="m215.61 472.55-20.559 26.551 29.473 22.773 18.59-24.031h0.003906c-6.5898-0.94141-12.738-3.8516-17.648-8.3438-4.9062-4.4961-8.3438-10.367-9.8594-16.848z"></path>
  <path d="m356.62 367.7 5.0391 1.4609c2.8008 0.77734 4.8906 3.1211 5.3398 5.9961 2.7422 16.582-1.957 33.527-12.852 46.324-10.895 12.793-26.871 20.141-43.676 20.078h-62.422c-0.94141-0.050781-1.8828-0.050781-2.8242 0h-0.90625l-1.8125 0.35156-1.1094 0.30078-1.5625 0.55469-1.1602 0.45312-1.0078 0.50391-0.85547 0.40234 0.003906 0.003906c-1.1211 0.62891-2.1836 1.3516-3.1758 2.1641-2.7695 2.1562-5.0078 4.9102-6.5508 8.0625-0.66797 1.4023-1.1914 2.8711-1.5625 4.3828-0.023438 0.30078-0.023438 0.60547 0 0.90625-0.375 1.6523-0.5625 3.3438-0.55078 5.0391-0.015624 6.1758 2.4336 12.105 6.8008 16.473 4.3672 4.3672 10.297 6.8164 16.473 6.8047h66c13.207 0.074218 26.059 4.3047 36.727 12.09 17.332 12.293 56.527 29.07 124.74 3.0234h0.003906c0.55859-0.22266 1.1562-0.34375 1.7617-0.35156h51.438v-116.93c-14.105-8.5664-85.648-52.145-123.48-81.164z"></path>
  <path d="m180.14 546.76 35.973-18.641-25.293-19.547z"></path>
  <path d="m539 382.92v133.86h82.676v-156.73h-82.676z"></path>
 </g>

      </g>
     <g id="IconSvg_iconCarrier">
      <g xmlns="http://www.w3.org/2000/svg">
  <path d="m217.07 451.09 1.6133-2.0156h-0.003907c2.0039-3.7383 4.707-7.0547 7.9609-9.7734l40.305-49.523 68.168-88.219c-2.9727 1.5117-5.0391 2.8203-6.0977 3.4258-11.637 7.1523-71.188 39.598-80.156 44.637l-70.281 99c4.082 4.2812 12.695 11.84 22.016 11.84 6.6875-0.26562 12.832-3.7578 16.477-9.3711z"></path>
  <path d="m282.11 386.6-7.3555 9.4727-27.355 35.266h47.055l41.969-54.008 3.2734-4.2812 61.215-78.848 3.0742-3.9805 27.961-36.324c2.9258-3.6914 4.3477-8.3516 3.9805-13.047-0.36719-4.6953-2.5-9.0781-5.9688-12.266s-8.0156-4.9453-12.723-4.918c-0.80859-0.050781-1.6133-0.050781-2.4219 0-4.9102 0.62891-9.3672 3.1836-12.391 7.1055l-39.551 51.438-4.4844 5.7422-5.0391 6.3984-65.496 84.891z"></path>
  <path d="m215.61 472.55-20.559 26.551 29.473 22.773 18.59-24.031h0.003906c-6.5898-0.94141-12.738-3.8516-17.648-8.3438-4.9062-4.4961-8.3438-10.367-9.8594-16.848z"></path>
  <path d="m356.62 367.7 5.0391 1.4609c2.8008 0.77734 4.8906 3.1211 5.3398 5.9961 2.7422 16.582-1.957 33.527-12.852 46.324-10.895 12.793-26.871 20.141-43.676 20.078h-62.422c-0.94141-0.050781-1.8828-0.050781-2.8242 0h-0.90625l-1.8125 0.35156-1.1094 0.30078-1.5625 0.55469-1.1602 0.45312-1.0078 0.50391-0.85547 0.40234 0.003906 0.003906c-1.1211 0.62891-2.1836 1.3516-3.1758 2.1641-2.7695 2.1562-5.0078 4.9102-6.5508 8.0625-0.66797 1.4023-1.1914 2.8711-1.5625 4.3828-0.023438 0.30078-0.023438 0.60547 0 0.90625-0.375 1.6523-0.5625 3.3438-0.55078 5.0391-0.015624 6.1758 2.4336 12.105 6.8008 16.473 4.3672 4.3672 10.297 6.8164 16.473 6.8047h66c13.207 0.074218 26.059 4.3047 36.727 12.09 17.332 12.293 56.527 29.07 124.74 3.0234h0.003906c0.55859-0.22266 1.1562-0.34375 1.7617-0.35156h51.438v-116.93c-14.105-8.5664-85.648-52.145-123.48-81.164z"></path>
  <path d="m180.14 546.76 35.973-18.641-25.293-19.547z"></path>
  <path d="m539 382.92v133.86h82.676v-156.73h-82.676z"></path>
 </g>

      </g>
      </svg>